<?xml version="1.0" encoding="UTF-8"?>
<svg version="1.1" xmlns="http://www.w3.org/2000/svg" width="512" height="512">
<path d="M0 0 C37.0644204 8.15351561 83.80739575 26.64014177 112.22705078 52.59887695 C115.21001451 54.4227712 116.77333392 53.92811326 120.16894531 53.26220703 C121.88235107 52.94002197 121.88235107 52.94002197 123.63037109 52.61132812 C124.85095215 52.36334473 126.0715332 52.11536133 127.32910156 51.85986328 C128.59093262 51.61961426 129.85276367 51.37936523 131.15283203 51.13183594 C136.77512632 50.05640913 142.38557947 48.92359911 147.99707031 47.79345703 C165.81754805 44.2361958 183.81752981 42.02896185 201.96972656 41.10986328 C206.24230767 40.87574925 210.4885379 40.4593643 214.74316406 40.00830078 C217.39160156 39.92236328 217.39160156 39.92236328 220.20849609 40.39233398 C223.15231007 40.88251807 225.99273946 41.14771253 228.96972656 41.31689453 C248.21235108 42.51017911 266.95782355 44.99266428 285.85253906 48.80908203 C286.66725174 48.97246567 287.48196442 49.1358493 288.32136536 49.30418396 C292.37686097 50.11885945 296.42765189 50.94990144 300.47338867 51.81176758 C301.96296165 52.11730952 303.45262241 52.42242397 304.94238281 52.72705078 C305.62146698 52.87780563 306.30055115 53.02856049 307.00021362 53.18388367 C311.13089664 54.01022257 313.6689494 53.92953254 317.39160156 51.92236328 C319.00744954 50.80116264 320.58862065 49.62913826 322.14160156 48.42236328 C329.53404667 42.95667249 337.37376837 38.40552207 345.39160156 33.92236328 C346.2054834 33.46345703 347.01936523 33.00455078 347.85791016 32.53173828 C375.67857174 16.99101959 411.77190709 -1.39246136 444.26660156 -1.45263672 C445.34554687 -1.489375 445.34554687 -1.489375 446.44628906 -1.52685547 C449.98222421 -1.54635511 452.17586915 -1.20565375 455.23535156 0.60986328 C470.79587371 17.29795949 467.06061321 50.71104495 466.39160156 71.92236328 C464.77338629 106.16528641 456.10188754 140.65030972 446.82522583 173.52122498 C444.32438537 181.43354476 444.32438537 181.43354476 446.01660156 189.18798828 C446.5769812 190.37871948 446.5769812 190.37871948 447.14868164 191.59350586 C447.763927 192.87004028 447.763927 192.87004028 448.39160156 194.17236328 C458.43950988 216.35240879 464.66217837 242.2889388 464.92285156 266.72705078 C465.07753906 267.45150391 465.23222656 268.17595703 465.39160156 268.92236328 C467.2983603 270.240598 467.2983603 270.240598 469.39160156 270.92236328 C471.26803918 272.79880089 470.57145143 275.42042029 470.62207031 277.91455078 C470.39160156 279.92236328 470.39160156 279.92236328 468.39160156 282.92236328 C468.10936802 285.07864911 468.10936802 285.07864911 468.18041992 287.47875977 C468.18548805 288.86181557 468.18548805 288.86181557 468.19065857 290.27281189 C468.21084801 291.76803123 468.21084801 291.76803123 468.23144531 293.29345703 C468.23664688 294.32616226 468.24184845 295.35886749 468.24720764 296.42286682 C468.26504004 299.73534085 468.29615357 303.04750774 468.32910156 306.35986328 C468.35688957 309.64005586 468.38165728 312.92019689 468.40028381 316.20045471 C468.41235038 318.24081015 468.42975661 320.28114405 468.45359802 322.32139587 C468.49519506 328.3747756 468.17214083 334.29701293 467.5483551 340.31947327 C467.28352656 343.15640002 467.28352656 343.15640002 468.01660156 346.85986328 C468.39160156 349.92236328 468.39160156 349.92236328 467.06347656 351.98095703 C464.70449959 356.13121325 464.00022159 360.40709193 463.01660156 365.04736328 C457.64875703 388.68687419 443.01870223 404.07853414 425.61694336 420.03393555 C422.44471942 422.95478035 419.41835545 425.86289882 416.64160156 429.17236328 C403.4912431 444.8070464 384.17654261 458.03482057 366.39160156 467.92236328 C365.73160156 467.92236328 365.07160156 467.92236328 364.39160156 467.92236328 C364.39160156 468.58236328 364.39160156 469.24236328 364.39160156 469.92236328 C327.9771541 490.40548998 287.40387136 501.95027742 246.39160156 508.92236328 C245.68068359 509.05368652 244.96976562 509.18500977 244.23730469 509.3203125 C220.45135806 513.69579752 194.92596822 511.43920987 171.39160156 506.92236328 C170.42528809 506.74044434 169.45897461 506.55852539 168.46337891 506.37109375 C132.29192715 499.41528441 96.55704115 488.09852765 64.39160156 469.92236328 C64.39160156 469.26236328 64.39160156 468.60236328 64.39160156 467.92236328 C63.66972656 467.65552734 62.94785156 467.38869141 62.20410156 467.11376953 C57.23269845 465.00782794 52.88258287 461.89358285 48.39160156 458.92236328 C47.36421875 458.24947266 46.33683594 457.57658203 45.27832031 456.88330078 C36.76143531 451.16378094 29.04141495 444.74706771 21.39160156 437.92236328 C20.84020508 437.43413086 20.28880859 436.94589844 19.72070312 436.44287109 C14.1857467 431.52989423 8.92911261 426.56923622 4.16503906 420.88720703 C1.27634633 417.68673909 -1.98438589 414.91349848 -5.20605469 412.05517578 C-22.23552981 396.9363247 -31.01281348 380.69940465 -36.12646484 358.69287109 C-36.92799157 355.27604147 -37.63959833 352.87556344 -39.60839844 349.92236328 C-39.54980469 347.75830078 -39.54980469 347.75830078 -39.17089844 345.29736328 C-38.66828359 342.02772142 -38.65334467 339.19795353 -39.09472656 335.94189453 C-39.72870332 330.49858906 -39.69870456 325.12224426 -39.63574219 319.64892578 C-39.62311102 317.50439605 -39.61074899 315.35986473 -39.59863281 313.21533203 C-39.57370545 309.8642061 -39.54556055 306.51316484 -39.51245117 303.16210938 C-39.48235733 299.90770918 -39.46452238 296.65342014 -39.44824219 293.39892578 C-39.42805275 291.88958969 -39.42805275 291.88958969 -39.40745544 290.34976196 C-39.40238731 288.95218155 -39.40238731 288.95218155 -39.3972168 287.52636719 C-39.38975937 286.70746002 -39.38230194 285.88855286 -39.37461853 285.04483032 C-39.47678084 282.62116371 -39.47678084 282.62116371 -41.60839844 279.92236328 C-42.1718747 276.29269797 -42.34896626 272.99955284 -40.23339844 269.92236328 C-38.60839844 268.92236328 -38.60839844 268.92236328 -36.60839844 268.92236328 C-36.58261719 268.26236328 -36.55683594 267.60236328 -36.53027344 266.92236328 C-35.07432199 241.50939257 -29.82939794 214.65171186 -18.27758789 191.85717773 C-17.90077881 191.0730249 -17.52396973 190.28887207 -17.13574219 189.48095703 C-16.6212854 188.48020142 -16.6212854 188.48020142 -16.09643555 187.45922852 C-15.31669312 183.40605015 -16.55736547 179.85695945 -17.60839844 175.92236328 C-17.79667709 175.17389633 -17.98495575 174.42542938 -18.17893982 173.65428162 C-18.77336549 171.29241442 -19.38522386 168.93551529 -19.99902344 166.57861328 C-25.77632511 144.154186 -31.13780624 121.83010809 -34.60839844 98.92236328 C-34.78338867 97.78202637 -34.95837891 96.64168945 -35.13867188 95.46679688 C-39.14909979 68.26338931 -43.94425303 27.86420382 -28.54589844 3.29736328 C-22.31538522 -4.34004002 -8.81777985 -1.71511529 0 0 Z " fill="#FECB4C" transform="translate(41.6083984375,1.07763671875)"/>
<path d="M0 0 C12.81218389 3.81324228 25.71169991 6.96278323 38.75317383 9.88476562 C39.46020447 10.04542511 40.16723511 10.20608459 40.89569092 10.37161255 C42.81931859 10.80822673 44.74468967 11.23713943 46.67016602 11.66552734 C49.6875 12.5 49.6875 12.5 52.6875 14.5 C59.2982616 16.47499932 66.33053925 16.98738597 73.16455078 17.74780273 C77.69179996 18.25276132 82.18521364 18.86225961 86.6875 19.5625 C103.613846 21.98815734 120.69413869 21.62443632 137.75 21.5625 C140.17773345 21.55747229 142.60546791 21.55291165 145.03320312 21.54882812 C150.91799128 21.53792937 156.80274075 21.52129308 162.6875 21.5 C162.6875 20.84 162.6875 20.18 162.6875 19.5 C163.71351318 19.42483154 163.71351318 19.42483154 164.76025391 19.34814453 C185.83748009 17.82978731 185.83748009 17.82978731 206.6875 14.5 C206.6875 13.84 206.6875 13.18 206.6875 12.5 C207.38609131 12.33918945 208.08468262 12.17837891 208.80444336 12.01269531 C215.66054166 10.43394031 222.51557574 8.85063665 229.37011719 7.26513672 C232.20665255 6.61090491 235.04433317 5.96213474 237.8828125 5.31640625 C244.94821863 3.69903333 251.85178342 1.9310579 258.6875 -0.5 C272.10237459 -5.04812233 272.10237459 -5.04812233 278.4375 -2.3125 C281.07175446 -0.19046169 282.2111576 1.45084964 283.6875 4.5 C284.015625 7.953125 284.015625 7.953125 283.9375 11.75 C283.91780151 12.74906372 283.91780151 12.74906372 283.89770508 13.76831055 C283.67811336 22.5830435 282.46838821 30.12235565 279.6875 38.5 C279.0275 38.5 278.3675 38.5 277.6875 38.5 C277.61015625 39.31597656 277.5328125 40.13195312 277.453125 40.97265625 C273.15008056 60.79739669 254.12093968 79.95297292 237.68994141 90.82128906 C234.49444265 92.82143175 231.25082308 94.71576702 227.96484375 96.5625 C224.70576088 98.37105221 224.70576088 98.37105221 222.17578125 100.59375 C219.21600403 102.86120885 216.47299735 103.8372142 212.9375 105 C208.88939939 106.37601757 204.93694023 107.75300869 201.0625 109.5625 C191.79722207 113.82057057 182.10317592 116.26838268 172.125 118.1875 C171.07892578 118.39955078 170.03285156 118.61160156 168.95507812 118.83007812 C156.52599486 121.27577607 144.38324105 121.68647742 131.7565918 121.68530273 C129.15461508 121.68747527 126.55307324 121.70564975 123.95117188 121.72460938 C97.26234108 121.81423339 71.14973384 117.45155392 46.6875 106.5 C45.27178376 105.8936096 43.85527331 105.28906517 42.4375 104.6875 C41.53 104.295625 40.6225 103.90375 39.6875 103.5 C39.6875 102.84 39.6875 102.18 39.6875 101.5 C38.98625 101.396875 38.285 101.29375 37.5625 101.1875 C34.29612353 100.40640997 31.6403148 99.07941257 28.6875 97.5 C28.6875 96.84 28.6875 96.18 28.6875 95.5 C27.965625 95.23960937 27.24375 94.97921875 26.5 94.7109375 C5.8048381 85.80052057 -12.09580725 62.86965454 -20.3125 42.5 C-21.27036433 39.17162268 -21.98105064 35.94707338 -22.3125 32.5 C-22.9725 32.5 -23.6325 32.5 -24.3125 32.5 C-25.97286021 25.76961127 -26.5978132 19.09649884 -26.75 12.1875 C-26.78416016 11.42324707 -26.81832031 10.65899414 -26.85351562 9.87158203 C-26.88574985 5.77335867 -26.53489233 3.25776683 -23.91015625 0.01953125 C-16.90914376 -6.77092447 -8.24351357 -2.52457966 0 0 Z " fill="#2C3234" transform="translate(127.3125,347.5)"/>
<path d="M0 0 C6.75 0.75 6.75 0.75 9 3 C11.19704511 3.67651207 11.19704511 3.67651207 13.625 4.125 C14.44226563 4.29257812 15.25953125 4.46015625 16.1015625 4.6328125 C16.72804687 4.75398438 17.35453125 4.87515625 18 5 C18 5.66 18 6.32 18 7 C18.97195312 7.21914063 19.94390625 7.43828125 20.9453125 7.6640625 C29.46416833 9.61404823 37.89588473 11.77134106 46.3125 14.125 C52.95347828 15.97377674 59.47724989 17.60720879 66.3125 18.578125 C69.2789105 19.04378246 72.14624282 19.72301699 75.0625 20.4375 C130.00158248 33.34134144 193.6953698 29.2171409 247 11 C250.22355982 10.02279784 253.45652679 9.07736969 256.6875 8.125 C263.16614017 6.2091055 269.54100411 4.20414002 275.80859375 1.6640625 C278.29673291 0.91008094 280.41439298 0.88143601 283 1 C281.75616514 13.93588255 278.75408826 30.01075896 269.125 39.375 C265.81544093 41.85402333 263.15689934 42.96146072 259.0078125 42.5546875 C252.41767579 40.73406607 247.43684515 35.9914508 243 31 C243 30.34 243 29.68 243 29 C236.71520216 30.984673 230.62099806 33.32632045 224.51806641 35.80493164 C220.45395012 37.44599342 216.38205345 38.90592553 212.20703125 40.23046875 C209.57411066 41.14849593 207.05493036 42.25829837 204.5 43.375 C197.50203571 46.33842365 190.31914156 48.43202263 183.00390625 50.44775391 C181.18724522 50.94839806 179.37461297 51.46360471 177.5625 51.98046875 C171.5162079 53.6231476 166.26453866 54.31322693 160 54 C160 54.66 160 55.32 160 56 C133.61300716 59.85393064 97.6063833 56.02518095 74.375 41.9375 C71.5162028 40.29633864 69.48429047 39.47706518 66.375 38.625 C60.98439134 37.14361136 56.16466623 34.80223639 51.17578125 32.3046875 C47.65218111 30.85710762 44.81499796 30.09381143 41 30 C38.81579217 31.50797778 38.81579217 31.50797778 37.3125 33.8125 C35.09677147 36.80029623 33.5337846 38.68267201 30 40 C29.01 40 28.02 40 27 40 C27 40.66 27 41.32 27 42 C25.60596244 42.10933628 24.20936224 42.18619553 22.8125 42.25 C22.03519531 42.29640625 21.25789063 42.3428125 20.45703125 42.390625 C16.98240807 41.83822068 15.49314062 40.45694987 13 38 C7.74403302 29.61886347 4.58994725 20.50081152 2 11 C1.58416829 9.64557671 1.16767863 8.29135488 0.75 6.9375 C0 4 0 4 0 0 Z " fill="#F0F3F5" transform="translate(114,356)"/>
<path d="M0 0 C10.38416183 17.55867364 5.67271418 44.91430984 2 64 C1.69470201 65.69259833 1.39002464 67.38530871 1.0859375 69.078125 C-1.83648762 84.88393841 -6.39595525 99.95254368 -12 115 C-15.27053512 113.36473244 -16.12669886 109.818243 -17.625 106.625 C-23.64768789 94.22737198 -31.84941283 82.79272109 -42.625 74.0625 C-45.28970429 70.62643395 -45.31842584 70.00863919 -45 65.875 C-44.70454081 63.91059566 -44.36947318 61.95183763 -44 60 C-42.62247771 52.29794105 -41.3661455 44.85684767 -42 37 C-43.84233343 35.15766657 -46.64755261 35.74015268 -49.125 35.6875 C-57.55940161 35.73070902 -66.69210881 37.08922096 -74.1796875 41.1953125 C-76 42 -76 42 -77.828125 41.90234375 C-81.08457779 40.54939304 -83.87918807 38.57837783 -86.75 36.5625 C-87.35199219 36.15451172 -87.95398438 35.74652344 -88.57421875 35.32617188 C-90.08960812 34.27295908 -91.5502034 33.14181957 -93 32 C-93 31.34 -93 30.68 -93 30 C-84.72658537 22.94662808 -73.94301958 16.96271672 -63.94897461 12.81298828 C-61.67839167 11.86584545 -59.43006316 10.8730903 -57.1796875 9.87890625 C-13.90370749 -9.09088566 -13.90370749 -9.09088566 0 0 Z " fill="#F18F26" transform="translate(482,40)"/>
<path d="M0 0 C0.89332031 0.0721875 1.78664063 0.144375 2.70703125 0.21875 C17.70074013 2.10637 32.24658457 8.19990565 45.51171875 15.19921875 C49.89409198 17.46156372 54.37154891 19.30883518 59 21 C59 21.66 59 22.32 59 23 C59.69480469 23.24492188 60.38960938 23.48984375 61.10546875 23.7421875 C64.46600214 25.20250025 67.28574867 27.06281778 70.3125 29.125 C71.91544922 30.21167969 71.91544922 30.21167969 73.55078125 31.3203125 C74.35902344 31.87460938 75.16726562 32.42890625 76 33 C74.74641445 36.76075665 73.29326113 37.47649131 70.0625 39.6875 C69.16660156 40.31011719 68.27070312 40.93273437 67.34765625 41.57421875 C65 43 65 43 63 43 C63 43.66 63 44.32 63 45 C59.38175268 44.53612214 56.06371109 43.74250831 52.625 42.5625 C43.38898096 39.43787664 35.78798069 38.75255105 26 39 C25.56788275 47.16221479 26.44702851 54.7705773 27.93286133 62.76708984 C29.49352296 71.23342418 29.49352296 71.23342418 29 74 C26.85546875 76.44921875 26.85546875 76.44921875 24 79 C12.4916938 90.54086152 3.78850885 103.13673852 -3 118 C-5 117 -5 117 -6.14404297 114.14624023 C-16.53729135 82.0682363 -30.44714009 38.24006376 -18 5 C-14.26337534 -1.7259244 -6.6786411 -0.59146637 0 0 Z " fill="#F18F26" transform="translate(46,37)"/>
<path d="M0 0 C10.80997688 8.07923359 16.37250162 20.4354234 18.375 33.5625 C18.69387631 37.81606337 18.75617327 42.0480058 18.75 46.3125 C18.74758301 48.0440332 18.74758301 48.0440332 18.74511719 49.81054688 C18.62506535 58.13884864 17.7332075 64.88173488 14.375 72.5625 C13.9934375 73.54863281 13.611875 74.53476563 13.21875 75.55078125 C12.30681762 77.90552092 11.36136892 80.23823706 10.375 82.5625 C9.715 82.5625 9.055 82.5625 8.375 82.5625 C8.21 83.243125 8.045 83.92375 7.875 84.625 C5.28569392 89.69572441 0.79693429 93.13417978 -4.0625 96 C-10.18028913 97.34292932 -14.82290608 97.46689445 -20.3125 94.125 C-24.88827772 90.76140199 -28.05141993 86.60873543 -30.625 81.5625 C-30.625 80.9025 -30.625 80.2425 -30.625 79.5625 C-31.615 79.2325 -32.605 78.9025 -33.625 78.5625 C-34.48907158 75.9524079 -35.16185393 73.48503572 -35.75 70.8125 C-35.91886719 70.09578125 -36.08773438 69.3790625 -36.26171875 68.640625 C-36.73395823 66.61780391 -37.18963074 64.59356879 -37.625 62.5625 C-37.80369629 61.7782666 -37.98239258 60.9940332 -38.16650391 60.18603516 C-39.06062413 55.06983925 -38.85210321 49.86789953 -38.875 44.6875 C-38.895625 43.52863281 -38.91625 42.36976563 -38.9375 41.17578125 C-38.96688685 34.74740756 -38.58323453 30.2650319 -35.625 24.5625 C-35.15097727 22.75920719 -34.71038435 20.94660658 -34.3125 19.125 C-32.84269774 13.53668931 -30.45238117 9.82862974 -26.625 5.5625 C-26.13773437 4.98371094 -25.65046875 4.40492188 -25.1484375 3.80859375 C-18.70549034 -3.3406658 -8.23300512 -5.05461709 0 0 Z " fill="#2C3133" transform="translate(351.625,159.4375)"/>
<path d="M0 0 C9.94898994 7.50999593 13.59823351 16.85418972 17.25 28.4375 C17.745 29.9225 17.745 29.9225 18.25 31.4375 C18.48630873 35.64180966 18.43518922 39.8522632 18.4375 44.0625 C18.44974609 45.21363281 18.46199219 46.36476562 18.47460938 47.55078125 C18.50104526 63.00695923 13.8913569 79.72805152 3.25 91.4375 C-1.94270733 95.06970461 -7.33776598 97.27796993 -13.72265625 96.8515625 C-19.45766815 95.68024986 -22.85092034 91.45592085 -26.35546875 87.12109375 C-27.69146941 85.41838052 -27.69146941 85.41838052 -29.26953125 84.1015625 C-31.35064962 81.76236349 -32.1616075 79.30179905 -33.25 76.375 C-33.6521875 75.31152344 -34.054375 74.24804688 -34.46875 73.15234375 C-34.8915625 71.92644531 -35.314375 70.70054687 -35.75 69.4375 C-36.15037476 68.339823 -36.15037476 68.339823 -36.55883789 67.2199707 C-38.88083086 60.3590656 -39.25474054 53.96009221 -39.1875 46.75 C-39.17920166 45.6038623 -39.17090332 44.45772461 -39.16235352 43.27685547 C-38.85406995 27.76174457 -35.01349694 13.95284184 -24.1875 2.3125 C-17.44393319 -3.81937159 -7.74957119 -4.90065632 0 0 Z " fill="#2C3133" transform="translate(180.75,159.5625)"/>
<path d="M0 0 C2.4985248 0.03139097 4.99641363 0.04101638 7.49511719 0.046875 C35.70154669 0.18017059 35.70154669 0.18017059 44.79980469 7.28125 C48.28082158 12.12440394 47.86227739 18.58382442 47.23730469 24.28125 C43.01694699 39.4272066 32.04099683 52.35494142 18.53417969 60.0546875 C17.77621094 60.45945312 17.01824219 60.86421875 16.23730469 61.28125 C15.63660156 61.65636719 15.03589844 62.03148437 14.41699219 62.41796875 C8.30642663 64.83810314 -0.48018522 64.25256078 -6.71972656 62.40625 C-9.23701666 61.20112214 -11.46641017 59.86572696 -13.76269531 58.28125 C-14.91318359 57.51941406 -14.91318359 57.51941406 -16.08691406 56.7421875 C-27.12747194 48.83197456 -34.49954988 37.0706863 -38.76269531 24.28125 C-39.42701625 16.83214308 -39.36615105 11.33150611 -34.76269531 5.28125 C-25.20806525 -1.08850337 -11.05269698 -0.13963139 0 0 Z " fill="#E75B6F" transform="translate(251.7626953125,277.71875)"/>
<path d="M0 0 C1.32840912 -0.01845978 1.32840912 -0.01845978 2.68365479 -0.03729248 C5.22322019 -0.06687105 7.76109069 -0.06746131 10.30078125 -0.05859375 C11.05904709 -0.06967667 11.81731293 -0.08075958 12.59855652 -0.09217834 C17.75178144 -0.02558551 20.7370498 1.14731032 24.6875 4.4375 C25.63264732 7.36858186 25.08743004 9.28805095 24.6875 12.4375 C24.0275 13.4275 23.3675 14.4175 22.6875 15.4375 C20.35466003 15.82949829 20.35466003 15.82949829 17.39916992 15.85400391 C16.29429733 15.87057037 15.18942474 15.88713684 14.05107117 15.90420532 C12.85214737 15.90745819 11.65322357 15.91071106 10.41796875 15.9140625 C8.57553337 15.93743179 8.57553337 15.93743179 6.69587708 15.96127319 C3.42461637 16.00085499 0.1535672 16.02813567 -3.11785889 16.04876709 C-7.7166231 16.08023195 -12.31518648 16.13195815 -16.91374207 16.18515015 C-19.36217933 16.21232819 -21.81068934 16.23370045 -24.25923157 16.24868774 C-25.37356064 16.25894989 -26.48788971 16.26921204 -27.63598633 16.27978516 C-28.61368484 16.28628082 -29.59138336 16.29277649 -30.59870911 16.29946899 C-33.26656014 16.43516337 -35.70654263 16.8715769 -38.3125 17.4375 C-39.74878457 17.50016512 -41.1875555 17.52436347 -42.625 17.5 C-44.4503125 17.4690625 -44.4503125 17.4690625 -46.3125 17.4375 C-46.3125 18.0975 -46.3125 18.7575 -46.3125 19.4375 C-51.17738899 20.5540319 -56.01221497 21.5643376 -60.9375 22.375 C-64.67900925 23.04073061 -67.83421554 23.9551197 -71.28125 25.60546875 C-74.00092057 26.71948766 -76.781098 27.3846723 -79.625 28.125 C-93.70686433 32.07806573 -106.40073999 38.74245555 -118.8359375 46.3359375 C-123.90822275 49.42132758 -127.14250998 51.11058982 -133.3125 50.4375 C-135.3125 48.875 -135.3125 48.875 -136.3125 46.4375 C-136.3125 40.49492754 -136.3125 40.49492754 -133.96484375 38.01245117 C-132.1361414 36.6578472 -130.26974393 35.47355701 -128.3125 34.3125 C-127.63058594 33.88509521 -126.94867188 33.45769043 -126.24609375 33.01733398 C-124.28284327 31.79752026 -122.30318943 30.61185977 -120.3125 29.4375 C-119.405 28.89480469 -118.4975 28.35210937 -117.5625 27.79296875 C-113.27157037 25.32717412 -108.87525947 23.35866188 -104.3125 21.4375 C-102.91590258 20.68892378 -101.52016493 19.93874265 -100.125 19.1875 C-69.26270395 3.77948713 -33.97275982 0.27074486 0 0 Z " fill="#FEE5B3" transform="translate(138.3125,304.5625)"/>
<path d="M0 0 C0.70680908 0.00093658 1.41361816 0.00187317 2.1418457 0.00283813 C29.79354462 0.08196996 60.16608914 2.93873669 85.4140625 15.17578125 C88.29683293 16.45866362 91.25313309 17.38839101 94.25 18.375 C107.75893626 23.11625733 119.83856062 31.28820708 131.6875 39.1875 C132.5 42.625 132.5 42.625 132.6875 46.1875 C130.6875 49.1875 130.6875 49.1875 127.1875 50.1875 C121.47316747 50.6568916 117.49392154 47.99018908 112.6875 45.1875 C110.06655663 43.68035182 107.44064517 42.18205072 104.8125 40.6875 C104.12470459 40.295625 103.43690918 39.90375 102.72827148 39.5 C94.89679198 35.09196148 86.75060375 31.71765647 78.19140625 28.9921875 C76.27447925 28.3761392 74.36725791 27.72981608 72.46484375 27.0703125 C52.52565431 20.202755 52.52565431 20.202755 31.7421875 17.328125 C29.6875 17.1875 29.6875 17.1875 28.6875 16.1875 C27.01579966 16.08018184 25.33965301 16.04126248 23.66455078 16.02978516 C22.59318878 16.01952301 21.52182678 16.00926086 20.41799927 15.99868774 C19.25138763 15.99138641 18.084776 15.98408508 16.8828125 15.9765625 C14.43879536 15.9484965 11.99478502 15.91983205 9.55078125 15.890625 C5.67724782 15.84930731 1.80384191 15.8124412 -2.06982422 15.78613281 C-5.79421632 15.75861151 -9.51802003 15.71273888 -13.2421875 15.6640625 C-14.40475067 15.66080963 -15.56731384 15.65755676 -16.7651062 15.65420532 C-17.84277252 15.63763885 -18.92043884 15.62107239 -20.03076172 15.60400391 C-20.98038788 15.59591705 -21.93001404 15.5878302 -22.90841675 15.57949829 C-25.72544367 15.12016738 -26.62101949 14.4456444 -28.3125 12.1875 C-28.7109375 10.25 -28.7109375 10.25 -28.6875 8.1875 C-28.69523437 7.506875 -28.70296875 6.82625 -28.7109375 6.125 C-28.18996192 3.59162854 -27.30204712 2.81292509 -25.3125 1.1875 C-17.34161289 -0.88563205 -8.17654094 -0.01401077 0 0 Z " fill="#FEE5B3" transform="translate(377.3125,304.8125)"/>
<path d="M0 0 C1.40158356 0.00223572 1.40158356 0.00223572 2.83148193 0.0045166 C60.72356508 0.16987672 60.72356508 0.16987672 81.9375 14.3125 C82.30078125 16.40625 82.30078125 16.40625 82.25 18.8125 C82.24613281 19.6065625 82.24226562 20.400625 82.23828125 21.21875 C81.9375 23.3125 81.9375 23.3125 79.9375 25.3125 C73.17953381 26.17545754 68.08066483 25.21021926 61.9375 22.3125 C59.275741 21.83769975 56.62970446 21.59100391 53.9375 21.3125 C53.6075 20.9825 53.2775 20.6525 52.9375 20.3125 C50.61008011 19.94011282 48.27514285 19.61413134 45.9375 19.3125 C39.04861111 18.42361111 39.04861111 18.42361111 37.9375 17.3125 C26.4097079 16.09708224 14.76637074 16.11198109 3.1875 16.125 C1.9407399 16.12490936 1.9407399 16.12490936 0.66879272 16.12481689 C-14.65218576 16.14065291 -29.46246752 16.94145553 -44.52734375 19.92578125 C-49.29508249 20.65306343 -54.28124659 21.02623446 -59.0625 20.3125 C-61.04194936 17.34332597 -61.35600581 16.65547721 -61.375 13.3125 C-61.39175781 12.631875 -61.40851562 11.95125 -61.42578125 11.25 C-60.92174661 8.56181527 -60.32422471 7.8872314 -58.0625 6.3125 C-55.37377358 5.48406565 -52.80521537 4.82455158 -50.0625 4.25 C-49.37671875 4.08951172 -48.6909375 3.92902344 -47.984375 3.76367188 C-32.22588697 0.33372125 -16.0600079 -0.06377711 0 0 Z " fill="#FEE5B1" transform="translate(61.0625,263.6875)"/>
<path d="M0 0 C0.8827359 -0.00133942 1.7654718 -0.00267883 2.67495728 -0.00405884 C16.87959188 0.00060512 30.74669375 0.68755455 44.75 3.25 C45.47219727 3.37810059 46.19439453 3.50620117 46.93847656 3.63818359 C58.18794023 5.6999564 58.18794023 5.6999564 60.75 9.25 C61.11328125 11.1875 61.11328125 11.1875 61.0625 13.25 C61.05863281 13.930625 61.05476562 14.61125 61.05078125 15.3125 C60.75 17.25 60.75 17.25 58.75 20.25 C50.42214523 21.93539918 35.39179856 20.07089928 27.75 16.25 C24.70979417 16.12522319 21.69363463 16.06184183 18.65234375 16.046875 C17.72266281 16.03995132 16.79298187 16.03302765 15.83512878 16.02589417 C12.78587732 16.00844207 9.73679931 16.00228699 6.6875 16 C5.13709015 15.99799088 5.13709015 15.99799088 3.55535889 15.99594116 C-10.05408775 15.99976767 -23.56936971 16.31698158 -37.125 17.5625 C-37.79878693 17.62135376 -38.47257385 17.68020752 -39.16677856 17.74084473 C-46.38320108 18.3906178 -52.5917836 19.39009497 -59.25 22.25 C-65.9309805 24.27934783 -72.24977508 25.88638408 -79.25 25.25 C-82.25 23.25 -82.25 23.25 -82.68359375 21.19140625 C-82.68488281 20.40636719 -82.68617188 19.62132812 -82.6875 18.8125 C-82.70683594 18.03003906 -82.72617187 17.24757813 -82.74609375 16.44140625 C-82.25 14.25 -82.25 14.25 -80.6328125 12.58984375 C-77.71495745 10.94914821 -74.92138566 10.11718722 -71.6875 9.25 C-69.79837891 8.74146484 -69.79837891 8.74146484 -67.87109375 8.22265625 C-66.67613281 7.90167969 -65.48117187 7.58070313 -64.25 7.25 C-63.39535156 6.98058594 -62.54070312 6.71117187 -61.66015625 6.43359375 C-42.05640505 0.3650095 -20.36087177 0.01827151 0 0 Z " fill="#FEE5B1" transform="translate(451.25,263.75)"/>
</svg>
